<svg xmlns="http://www.w3.org/2000/svg" version="1.1" xmlns:xlink="http://www.w3.org/1999/xlink" xmlns:svgjs="http://svgjs.com/svgjs" width="1920" height="1000" preserveAspectRatio="none" viewBox="0 0 1920 1000"><g mask="url(&quot;#SvgjsMask1029&quot;)" fill="none"><path d="M489.592,1169.596C554.048,1165.616,591.784,1103.61,621.986,1046.529C649.614,994.313,671.325,933.38,641.581,882.34C611.985,831.554,548.371,818.973,489.592,819.344C431.628,819.71,373.101,836.047,340.888,884.237C304.901,938.072,295.561,1007.411,325.487,1064.837C357.631,1126.521,420.167,1173.883,489.592,1169.596" fill="rgba(41, 123, 211, 0.13)" class="triangle-float2"></path><path d="M1122.158,945.705C1182.692,948.543,1239.955,912.981,1268.146,859.338C1294.664,808.879,1277.766,750.997,1250.906,700.719C1221.884,646.393,1183.654,589.504,1122.158,586.066C1056.199,582.378,994.196,625.131,965.801,684.779C940.45,738.033,967.782,796.085,998.099,846.677C1027.249,895.323,1065.509,943.049,1122.158,945.705" fill="rgba(41, 123, 211, 0.13)" class="triangle-float3"></path><path d="M1040.968,745.979C1094.16,746.309,1126.81,693.133,1151.144,645.832C1172.905,603.532,1182.323,555.458,1160.805,513.034C1137.115,466.328,1093.327,427.546,1040.968,428.614C989.934,429.655,952.122,472.091,929.311,517.756C909.07,558.276,913.233,603.792,933.138,644.478C956.389,692.002,988.062,745.65,1040.968,745.979" fill="rgba(41, 123, 211, 0.13)" class="triangle-float1"></path><path d="M1895.874,447.787C1957.261,448.633,2013.633,412.184,2042.342,357.917C2069.38,306.807,2057.585,246.756,2028.734,196.647C1999.812,146.414,1953.781,100.962,1895.874,103.528C1840.806,105.968,1808.796,159.438,1781.953,207.582C1756.093,253.962,1733.479,305.995,1756.234,353.975C1781.988,408.278,1835.779,446.959,1895.874,447.787" fill="rgba(41, 123, 211, 0.13)" class="triangle-float1"></path><path d="M1056.457,720.416C1123.333,722.846,1187.973,688.208,1220.281,629.604C1251.617,572.763,1239.829,504.087,1206.387,448.458C1174.068,394.698,1119.097,353.792,1056.457,357.089C998.057,360.163,959.868,411.737,931.579,462.921C904.497,511.921,887.602,568.028,912.032,618.403C939.598,675.242,993.328,718.122,1056.457,720.416" fill="rgba(41, 123, 211, 0.13)" class="triangle-float3"></path><path d="M1471.306,217.336C1514.699,219.167,1562.126,209.659,1584.208,172.26C1606.555,134.412,1594.366,86.683,1570.081,50.048C1548.394,17.333,1510.557,2.097,1471.306,1.947C1431.749,1.796,1391.67,15.431,1371.216,49.289C1350.134,84.187,1352.921,128.351,1373.784,163.38C1394.159,197.59,1431.523,215.657,1471.306,217.336" fill="rgba(41, 123, 211, 0.13)" class="triangle-float3"></path><path d="M1628.48,678.994C1681.349,677.436,1724.324,641.165,1750.555,595.236C1776.54,549.738,1785.259,494.73,1759.905,448.877C1733.795,401.656,1682.435,373.813,1628.48,374.456C1575.604,375.086,1529.312,406.444,1502.371,451.947C1474.86,498.413,1467.054,555.611,1493.274,602.817C1520.195,651.286,1573.06,680.627,1628.48,678.994" fill="rgba(41, 123, 211, 0.13)" class="triangle-float2"></path><path d="M1102.061,480.623C1154.232,479.496,1198.677,447.129,1225.326,402.264C1252.635,356.288,1264.984,298.766,1237.227,253.059C1210.25,208.638,1154.031,199.527,1102.061,199.288C1049.531,199.046,992.951,207.503,964.724,251.806C934.765,298.827,940.518,359.995,969.21,407.799C997.065,454.207,1047.948,481.792,1102.061,480.623" fill="rgba(41, 123, 211, 0.13)" class="triangle-float3"></path><path d="M1426.458,966.882C1490.055,967.948,1554.71,942.357,1585.383,886.636C1615.199,832.471,1599.272,766.376,1565.251,714.749C1534.756,668.473,1481.878,645.42,1426.458,645.47C1371.136,645.52,1317.765,668.304,1288.095,714.997C1256.122,765.313,1247.8,829.207,1276.502,881.458C1306.187,935.499,1364.81,965.849,1426.458,966.882" fill="rgba(41, 123, 211, 0.13)" class="triangle-float2"></path></g><defs><mask id="SvgjsMask1029"><rect width="1920" height="1000" fill="#ffffff"></rect></mask></defs></svg>